<mxfile host="app.diagrams.net" modified="2023-01-31T22:42:52.363Z" agent="5.0 (Macintosh; Intel Mac OS X 10_15_7) AppleWebKit/537.36 (KHTML, like Gecko) Chrome/109.0.0.0 Safari/537.36" etag="oYL3pvET69JwAwg2gLwB" version="20.8.11" type="github">
  <diagram name="Page-1" id="_FEKKTkWSSTOCSQZe-sH">
    <mxGraphModel dx="2276" dy="1131" grid="1" gridSize="10" guides="1" tooltips="1" connect="1" arrows="1" fold="1" page="1" pageScale="1" pageWidth="850" pageHeight="1100" math="0" shadow="0">
      <root>
        <mxCell id="0" />
        <mxCell id="1" parent="0" />
        <mxCell id="CKW2dxHiue9IkvRFs45i-118" style="edgeStyle=none;rounded=0;orthogonalLoop=1;jettySize=auto;html=1;entryX=0;entryY=0.5;entryDx=0;entryDy=0;strokeColor=#006600;" edge="1" parent="1" source="CKW2dxHiue9IkvRFs45i-8" target="CKW2dxHiue9IkvRFs45i-86">
          <mxGeometry relative="1" as="geometry" />
        </mxCell>
        <mxCell id="CKW2dxHiue9IkvRFs45i-119" style="edgeStyle=none;rounded=0;orthogonalLoop=1;jettySize=auto;html=1;entryX=0;entryY=0.5;entryDx=0;entryDy=0;strokeColor=#006600;" edge="1" parent="1" source="CKW2dxHiue9IkvRFs45i-8" target="CKW2dxHiue9IkvRFs45i-87">
          <mxGeometry relative="1" as="geometry" />
        </mxCell>
        <mxCell id="CKW2dxHiue9IkvRFs45i-120" style="edgeStyle=none;rounded=0;orthogonalLoop=1;jettySize=auto;html=1;entryX=0;entryY=0.5;entryDx=0;entryDy=0;strokeColor=#006600;" edge="1" parent="1" source="CKW2dxHiue9IkvRFs45i-8" target="CKW2dxHiue9IkvRFs45i-95">
          <mxGeometry relative="1" as="geometry" />
        </mxCell>
        <mxCell id="CKW2dxHiue9IkvRFs45i-8" value="Wagon" style="rounded=1;whiteSpace=wrap;html=1;fillColor=#dae8fc;strokeColor=#6c8ebf;" vertex="1" parent="1">
          <mxGeometry x="920" y="420" width="120" height="60" as="geometry" />
        </mxCell>
        <mxCell id="CKW2dxHiue9IkvRFs45i-111" style="edgeStyle=none;rounded=0;orthogonalLoop=1;jettySize=auto;html=1;entryX=0;entryY=0.5;entryDx=0;entryDy=0;" edge="1" parent="1" source="CKW2dxHiue9IkvRFs45i-25" target="CKW2dxHiue9IkvRFs45i-107">
          <mxGeometry relative="1" as="geometry" />
        </mxCell>
        <mxCell id="CKW2dxHiue9IkvRFs45i-112" style="edgeStyle=none;rounded=0;orthogonalLoop=1;jettySize=auto;html=1;entryX=0;entryY=0.5;entryDx=0;entryDy=0;" edge="1" parent="1" source="CKW2dxHiue9IkvRFs45i-25" target="CKW2dxHiue9IkvRFs45i-108">
          <mxGeometry relative="1" as="geometry" />
        </mxCell>
        <mxCell id="CKW2dxHiue9IkvRFs45i-113" style="edgeStyle=none;rounded=0;orthogonalLoop=1;jettySize=auto;html=1;entryX=0;entryY=0.5;entryDx=0;entryDy=0;" edge="1" parent="1" source="CKW2dxHiue9IkvRFs45i-25" target="CKW2dxHiue9IkvRFs45i-109">
          <mxGeometry relative="1" as="geometry" />
        </mxCell>
        <mxCell id="CKW2dxHiue9IkvRFs45i-126" style="edgeStyle=none;rounded=0;orthogonalLoop=1;jettySize=auto;html=1;strokeColor=#990000;dashed=1;" edge="1" parent="1" source="CKW2dxHiue9IkvRFs45i-25" target="CKW2dxHiue9IkvRFs45i-58">
          <mxGeometry relative="1" as="geometry" />
        </mxCell>
        <mxCell id="CKW2dxHiue9IkvRFs45i-127" style="edgeStyle=none;rounded=0;orthogonalLoop=1;jettySize=auto;html=1;strokeColor=#990000;dashed=1;" edge="1" parent="1" source="CKW2dxHiue9IkvRFs45i-25" target="CKW2dxHiue9IkvRFs45i-124">
          <mxGeometry relative="1" as="geometry" />
        </mxCell>
        <mxCell id="CKW2dxHiue9IkvRFs45i-25" value="Engineering" style="shape=umlActor;verticalLabelPosition=bottom;verticalAlign=top;html=1;outlineConnect=0;" vertex="1" parent="1">
          <mxGeometry x="400" y="645" width="30" height="60" as="geometry" />
        </mxCell>
        <mxCell id="CKW2dxHiue9IkvRFs45i-117" style="edgeStyle=none;rounded=0;orthogonalLoop=1;jettySize=auto;html=1;entryX=0.5;entryY=1;entryDx=0;entryDy=0;" edge="1" parent="1" source="CKW2dxHiue9IkvRFs45i-35" target="CKW2dxHiue9IkvRFs45i-8">
          <mxGeometry relative="1" as="geometry" />
        </mxCell>
        <mxCell id="CKW2dxHiue9IkvRFs45i-121" style="edgeStyle=none;rounded=0;orthogonalLoop=1;jettySize=auto;html=1;entryX=0;entryY=0.5;entryDx=0;entryDy=0;strokeColor=#990000;" edge="1" parent="1" source="CKW2dxHiue9IkvRFs45i-35" target="CKW2dxHiue9IkvRFs45i-86">
          <mxGeometry relative="1" as="geometry" />
        </mxCell>
        <mxCell id="CKW2dxHiue9IkvRFs45i-122" style="edgeStyle=none;rounded=0;orthogonalLoop=1;jettySize=auto;html=1;entryX=0;entryY=0.5;entryDx=0;entryDy=0;strokeColor=#990000;" edge="1" parent="1" source="CKW2dxHiue9IkvRFs45i-35" target="CKW2dxHiue9IkvRFs45i-87">
          <mxGeometry relative="1" as="geometry" />
        </mxCell>
        <mxCell id="CKW2dxHiue9IkvRFs45i-123" style="edgeStyle=none;rounded=0;orthogonalLoop=1;jettySize=auto;html=1;entryX=0;entryY=0.5;entryDx=0;entryDy=0;strokeColor=#990000;" edge="1" parent="1" source="CKW2dxHiue9IkvRFs45i-35" target="CKW2dxHiue9IkvRFs45i-95">
          <mxGeometry relative="1" as="geometry" />
        </mxCell>
        <mxCell id="CKW2dxHiue9IkvRFs45i-132" style="edgeStyle=none;rounded=0;orthogonalLoop=1;jettySize=auto;html=1;entryX=0;entryY=0;entryDx=60;entryDy=80;entryPerimeter=0;dashed=1;strokeColor=#990000;" edge="1" parent="1" source="CKW2dxHiue9IkvRFs45i-35" target="CKW2dxHiue9IkvRFs45i-131">
          <mxGeometry relative="1" as="geometry" />
        </mxCell>
        <mxCell id="CKW2dxHiue9IkvRFs45i-35" value="Zordon" style="rounded=1;whiteSpace=wrap;html=1;fillColor=#dae8fc;strokeColor=#6c8ebf;" vertex="1" parent="1">
          <mxGeometry x="920" y="877" width="120" height="60" as="geometry" />
        </mxCell>
        <mxCell id="CKW2dxHiue9IkvRFs45i-40" value="" style="endArrow=none;dashed=1;html=1;dashPattern=1 3;strokeWidth=2;rounded=0;" edge="1" parent="1">
          <mxGeometry width="50" height="50" relative="1" as="geometry">
            <mxPoint x="1140" y="1105" as="sourcePoint" />
            <mxPoint x="1140" y="245" as="targetPoint" />
          </mxGeometry>
        </mxCell>
        <mxCell id="CKW2dxHiue9IkvRFs45i-125" style="edgeStyle=none;rounded=0;orthogonalLoop=1;jettySize=auto;html=1;entryX=0;entryY=0.5;entryDx=0;entryDy=0;strokeColor=#990000;dashed=1;" edge="1" parent="1" source="CKW2dxHiue9IkvRFs45i-58" target="CKW2dxHiue9IkvRFs45i-107">
          <mxGeometry relative="1" as="geometry" />
        </mxCell>
        <mxCell id="CKW2dxHiue9IkvRFs45i-58" value="Jenkins cross account role" style="sketch=0;outlineConnect=0;fontColor=#232F3E;gradientColor=none;fillColor=#08bf70;strokeColor=none;dashed=0;verticalLabelPosition=bottom;verticalAlign=top;align=center;html=1;fontSize=12;fontStyle=0;aspect=fixed;pointerEvents=1;shape=mxgraph.aws4.role;" vertex="1" parent="1">
          <mxGeometry x="376" y="473" width="78" height="44" as="geometry" />
        </mxCell>
        <mxCell id="CKW2dxHiue9IkvRFs45i-60" value="..." style="text;html=1;align=center;verticalAlign=middle;resizable=0;points=[];autosize=1;strokeColor=none;fillColor=none;" vertex="1" parent="1">
          <mxGeometry x="535" y="580" width="30" height="30" as="geometry" />
        </mxCell>
        <mxCell id="CKW2dxHiue9IkvRFs45i-86" value="" style="group;movable=1;resizable=1;rotatable=1;deletable=1;editable=1;connectable=1;" vertex="1" connectable="0" parent="1">
          <mxGeometry x="1290" y="140" width="470" height="270" as="geometry" />
        </mxCell>
        <mxCell id="CKW2dxHiue9IkvRFs45i-1" value="" style="ellipse;shape=cloud;whiteSpace=wrap;html=1;movable=1;resizable=1;rotatable=1;deletable=1;editable=1;connectable=1;" vertex="1" parent="CKW2dxHiue9IkvRFs45i-86">
          <mxGeometry width="470" height="270" as="geometry" />
        </mxCell>
        <mxCell id="CKW2dxHiue9IkvRFs45i-72" value="" style="sketch=0;points=[[0,0,0],[0.25,0,0],[0.5,0,0],[0.75,0,0],[1,0,0],[0,1,0],[0.25,1,0],[0.5,1,0],[0.75,1,0],[1,1,0],[0,0.25,0],[0,0.5,0],[0,0.75,0],[1,0.25,0],[1,0.5,0],[1,0.75,0]];outlineConnect=0;fontColor=#232F3E;gradientColor=#F78E04;gradientDirection=north;fillColor=#D05C17;strokeColor=#ffffff;dashed=0;verticalLabelPosition=bottom;verticalAlign=top;align=center;html=1;fontSize=12;fontStyle=0;aspect=fixed;shape=mxgraph.aws4.resourceIcon;resIcon=mxgraph.aws4.eks_cloud;movable=1;resizable=1;rotatable=1;deletable=1;editable=1;connectable=1;" vertex="1" parent="CKW2dxHiue9IkvRFs45i-86">
          <mxGeometry x="150" y="145" width="70" height="70" as="geometry" />
        </mxCell>
        <mxCell id="CKW2dxHiue9IkvRFs45i-66" value="" style="outlineConnect=0;dashed=0;verticalLabelPosition=bottom;verticalAlign=top;align=center;html=1;shape=mxgraph.aws3.bucket_with_objects;fillColor=#E05243;gradientColor=none;movable=1;resizable=1;rotatable=1;deletable=1;editable=1;connectable=1;" vertex="1" parent="CKW2dxHiue9IkvRFs45i-86">
          <mxGeometry x="341" y="143" width="50" height="51.5" as="geometry" />
        </mxCell>
        <mxCell id="CKW2dxHiue9IkvRFs45i-67" value="" style="outlineConnect=0;dashed=0;verticalLabelPosition=bottom;verticalAlign=top;align=center;html=1;shape=mxgraph.aws3.rds;fillColor=#2E73B8;gradientColor=none;movable=1;resizable=1;rotatable=1;deletable=1;editable=1;connectable=1;" vertex="1" parent="CKW2dxHiue9IkvRFs45i-86">
          <mxGeometry x="261" y="73" width="50" height="61" as="geometry" />
        </mxCell>
        <mxCell id="CKW2dxHiue9IkvRFs45i-68" value="" style="outlineConnect=0;dashed=0;verticalLabelPosition=bottom;verticalAlign=top;align=center;html=1;shape=mxgraph.aws3.ec2;fillColor=#F58534;gradientColor=none;movable=1;resizable=1;rotatable=1;deletable=1;editable=1;connectable=1;" vertex="1" parent="CKW2dxHiue9IkvRFs45i-86">
          <mxGeometry x="151" y="50" width="60" height="63" as="geometry" />
        </mxCell>
        <mxCell id="CKW2dxHiue9IkvRFs45i-69" value="AWS Cloud" style="sketch=0;outlineConnect=0;fontColor=#232F3E;gradientColor=none;strokeColor=#232F3E;fillColor=#ffffff;dashed=0;verticalLabelPosition=bottom;verticalAlign=top;align=center;html=1;fontSize=12;fontStyle=0;aspect=fixed;shape=mxgraph.aws4.resourceIcon;resIcon=mxgraph.aws4.aws_cloud;movable=1;resizable=1;rotatable=1;deletable=1;editable=1;connectable=1;" vertex="1" parent="CKW2dxHiue9IkvRFs45i-86">
          <mxGeometry x="276" y="208" width="60" height="60" as="geometry" />
        </mxCell>
        <mxCell id="CKW2dxHiue9IkvRFs45i-70" value="" style="shape=image;html=1;verticalAlign=top;verticalLabelPosition=bottom;labelBackgroundColor=#ffffff;imageAspect=0;aspect=fixed;image=https://cdn1.iconfinder.com/data/icons/iconoir-vol-3/24/question-mark-128.png;movable=1;resizable=1;rotatable=1;deletable=1;editable=1;connectable=1;" vertex="1" parent="CKW2dxHiue9IkvRFs45i-86">
          <mxGeometry x="238" y="150" width="58" height="58" as="geometry" />
        </mxCell>
        <mxCell id="CKW2dxHiue9IkvRFs45i-87" value="" style="group;movable=1;resizable=1;rotatable=1;deletable=1;editable=1;connectable=1;" vertex="1" connectable="0" parent="1">
          <mxGeometry x="1310" y="540" width="470" height="270" as="geometry" />
        </mxCell>
        <mxCell id="CKW2dxHiue9IkvRFs45i-88" value="" style="ellipse;shape=cloud;whiteSpace=wrap;html=1;movable=1;resizable=1;rotatable=1;deletable=1;editable=1;connectable=1;" vertex="1" parent="CKW2dxHiue9IkvRFs45i-87">
          <mxGeometry width="470" height="270" as="geometry" />
        </mxCell>
        <mxCell id="CKW2dxHiue9IkvRFs45i-89" value="" style="sketch=0;points=[[0,0,0],[0.25,0,0],[0.5,0,0],[0.75,0,0],[1,0,0],[0,1,0],[0.25,1,0],[0.5,1,0],[0.75,1,0],[1,1,0],[0,0.25,0],[0,0.5,0],[0,0.75,0],[1,0.25,0],[1,0.5,0],[1,0.75,0]];outlineConnect=0;fontColor=#232F3E;gradientColor=#F78E04;gradientDirection=north;fillColor=#D05C17;strokeColor=#ffffff;dashed=0;verticalLabelPosition=bottom;verticalAlign=top;align=center;html=1;fontSize=12;fontStyle=0;aspect=fixed;shape=mxgraph.aws4.resourceIcon;resIcon=mxgraph.aws4.eks_cloud;movable=1;resizable=1;rotatable=1;deletable=1;editable=1;connectable=1;" vertex="1" parent="CKW2dxHiue9IkvRFs45i-87">
          <mxGeometry x="150" y="145" width="70" height="70" as="geometry" />
        </mxCell>
        <mxCell id="CKW2dxHiue9IkvRFs45i-90" value="" style="outlineConnect=0;dashed=0;verticalLabelPosition=bottom;verticalAlign=top;align=center;html=1;shape=mxgraph.aws3.bucket_with_objects;fillColor=#E05243;gradientColor=none;movable=1;resizable=1;rotatable=1;deletable=1;editable=1;connectable=1;" vertex="1" parent="CKW2dxHiue9IkvRFs45i-87">
          <mxGeometry x="341" y="143" width="50" height="51.5" as="geometry" />
        </mxCell>
        <mxCell id="CKW2dxHiue9IkvRFs45i-91" value="" style="outlineConnect=0;dashed=0;verticalLabelPosition=bottom;verticalAlign=top;align=center;html=1;shape=mxgraph.aws3.rds;fillColor=#2E73B8;gradientColor=none;movable=1;resizable=1;rotatable=1;deletable=1;editable=1;connectable=1;" vertex="1" parent="CKW2dxHiue9IkvRFs45i-87">
          <mxGeometry x="261" y="73" width="50" height="61" as="geometry" />
        </mxCell>
        <mxCell id="CKW2dxHiue9IkvRFs45i-92" value="" style="outlineConnect=0;dashed=0;verticalLabelPosition=bottom;verticalAlign=top;align=center;html=1;shape=mxgraph.aws3.ec2;fillColor=#F58534;gradientColor=none;movable=1;resizable=1;rotatable=1;deletable=1;editable=1;connectable=1;" vertex="1" parent="CKW2dxHiue9IkvRFs45i-87">
          <mxGeometry x="151" y="50" width="60" height="63" as="geometry" />
        </mxCell>
        <mxCell id="CKW2dxHiue9IkvRFs45i-93" value="AWS Cloud" style="sketch=0;outlineConnect=0;fontColor=#232F3E;gradientColor=none;strokeColor=#232F3E;fillColor=#ffffff;dashed=0;verticalLabelPosition=bottom;verticalAlign=top;align=center;html=1;fontSize=12;fontStyle=0;aspect=fixed;shape=mxgraph.aws4.resourceIcon;resIcon=mxgraph.aws4.aws_cloud;movable=1;resizable=1;rotatable=1;deletable=1;editable=1;connectable=1;" vertex="1" parent="CKW2dxHiue9IkvRFs45i-87">
          <mxGeometry x="276" y="208" width="60" height="60" as="geometry" />
        </mxCell>
        <mxCell id="CKW2dxHiue9IkvRFs45i-94" value="" style="shape=image;html=1;verticalAlign=top;verticalLabelPosition=bottom;labelBackgroundColor=#ffffff;imageAspect=0;aspect=fixed;image=https://cdn1.iconfinder.com/data/icons/iconoir-vol-3/24/question-mark-128.png;movable=1;resizable=1;rotatable=1;deletable=1;editable=1;connectable=1;" vertex="1" parent="CKW2dxHiue9IkvRFs45i-87">
          <mxGeometry x="238" y="150" width="58" height="58" as="geometry" />
        </mxCell>
        <mxCell id="CKW2dxHiue9IkvRFs45i-95" value="" style="group;movable=1;resizable=1;rotatable=1;deletable=1;editable=1;connectable=1;" vertex="1" connectable="0" parent="1">
          <mxGeometry x="1326" y="930" width="470" height="270" as="geometry" />
        </mxCell>
        <mxCell id="CKW2dxHiue9IkvRFs45i-96" value="" style="ellipse;shape=cloud;whiteSpace=wrap;html=1;movable=1;resizable=1;rotatable=1;deletable=1;editable=1;connectable=1;" vertex="1" parent="CKW2dxHiue9IkvRFs45i-95">
          <mxGeometry width="470" height="270" as="geometry" />
        </mxCell>
        <mxCell id="CKW2dxHiue9IkvRFs45i-97" value="" style="sketch=0;points=[[0,0,0],[0.25,0,0],[0.5,0,0],[0.75,0,0],[1,0,0],[0,1,0],[0.25,1,0],[0.5,1,0],[0.75,1,0],[1,1,0],[0,0.25,0],[0,0.5,0],[0,0.75,0],[1,0.25,0],[1,0.5,0],[1,0.75,0]];outlineConnect=0;fontColor=#232F3E;gradientColor=#F78E04;gradientDirection=north;fillColor=#D05C17;strokeColor=#ffffff;dashed=0;verticalLabelPosition=bottom;verticalAlign=top;align=center;html=1;fontSize=12;fontStyle=0;aspect=fixed;shape=mxgraph.aws4.resourceIcon;resIcon=mxgraph.aws4.eks_cloud;movable=1;resizable=1;rotatable=1;deletable=1;editable=1;connectable=1;" vertex="1" parent="CKW2dxHiue9IkvRFs45i-95">
          <mxGeometry x="150" y="145" width="70" height="70" as="geometry" />
        </mxCell>
        <mxCell id="CKW2dxHiue9IkvRFs45i-98" value="" style="outlineConnect=0;dashed=0;verticalLabelPosition=bottom;verticalAlign=top;align=center;html=1;shape=mxgraph.aws3.bucket_with_objects;fillColor=#E05243;gradientColor=none;movable=1;resizable=1;rotatable=1;deletable=1;editable=1;connectable=1;" vertex="1" parent="CKW2dxHiue9IkvRFs45i-95">
          <mxGeometry x="341" y="143" width="50" height="51.5" as="geometry" />
        </mxCell>
        <mxCell id="CKW2dxHiue9IkvRFs45i-99" value="" style="outlineConnect=0;dashed=0;verticalLabelPosition=bottom;verticalAlign=top;align=center;html=1;shape=mxgraph.aws3.rds;fillColor=#2E73B8;gradientColor=none;movable=1;resizable=1;rotatable=1;deletable=1;editable=1;connectable=1;" vertex="1" parent="CKW2dxHiue9IkvRFs45i-95">
          <mxGeometry x="261" y="73" width="50" height="61" as="geometry" />
        </mxCell>
        <mxCell id="CKW2dxHiue9IkvRFs45i-100" value="" style="outlineConnect=0;dashed=0;verticalLabelPosition=bottom;verticalAlign=top;align=center;html=1;shape=mxgraph.aws3.ec2;fillColor=#F58534;gradientColor=none;movable=1;resizable=1;rotatable=1;deletable=1;editable=1;connectable=1;" vertex="1" parent="CKW2dxHiue9IkvRFs45i-95">
          <mxGeometry x="151" y="50" width="60" height="63" as="geometry" />
        </mxCell>
        <mxCell id="CKW2dxHiue9IkvRFs45i-101" value="AWS Cloud" style="sketch=0;outlineConnect=0;fontColor=#232F3E;gradientColor=none;strokeColor=#232F3E;fillColor=#ffffff;dashed=0;verticalLabelPosition=bottom;verticalAlign=top;align=center;html=1;fontSize=12;fontStyle=0;aspect=fixed;shape=mxgraph.aws4.resourceIcon;resIcon=mxgraph.aws4.aws_cloud;movable=1;resizable=1;rotatable=1;deletable=1;editable=1;connectable=1;" vertex="1" parent="CKW2dxHiue9IkvRFs45i-95">
          <mxGeometry x="276" y="208" width="60" height="60" as="geometry" />
        </mxCell>
        <mxCell id="CKW2dxHiue9IkvRFs45i-102" value="" style="shape=image;html=1;verticalAlign=top;verticalLabelPosition=bottom;labelBackgroundColor=#ffffff;imageAspect=0;aspect=fixed;image=https://cdn1.iconfinder.com/data/icons/iconoir-vol-3/24/question-mark-128.png;movable=1;resizable=1;rotatable=1;deletable=1;editable=1;connectable=1;" vertex="1" parent="CKW2dxHiue9IkvRFs45i-95">
          <mxGeometry x="238" y="150" width="58" height="58" as="geometry" />
        </mxCell>
        <mxCell id="CKW2dxHiue9IkvRFs45i-103" value="Production" style="shape=callout;whiteSpace=wrap;html=1;perimeter=calloutPerimeter;" vertex="1" parent="1">
          <mxGeometry x="1676" y="50" width="120" height="80" as="geometry" />
        </mxCell>
        <mxCell id="CKW2dxHiue9IkvRFs45i-105" value="Sandbox" style="shape=callout;whiteSpace=wrap;html=1;perimeter=calloutPerimeter;" vertex="1" parent="1">
          <mxGeometry x="1760" y="440" width="120" height="80" as="geometry" />
        </mxCell>
        <mxCell id="CKW2dxHiue9IkvRFs45i-106" value="Staging/Dev/QAD" style="shape=callout;whiteSpace=wrap;html=1;perimeter=calloutPerimeter;" vertex="1" parent="1">
          <mxGeometry x="1780" y="810" width="120" height="80" as="geometry" />
        </mxCell>
        <mxCell id="CKW2dxHiue9IkvRFs45i-114" style="edgeStyle=none;rounded=0;orthogonalLoop=1;jettySize=auto;html=1;entryX=0;entryY=0.5;entryDx=0;entryDy=0;" edge="1" parent="1" source="CKW2dxHiue9IkvRFs45i-107" target="CKW2dxHiue9IkvRFs45i-8">
          <mxGeometry relative="1" as="geometry" />
        </mxCell>
        <mxCell id="CKW2dxHiue9IkvRFs45i-107" value="Jenkins pipeline" style="rounded=1;whiteSpace=wrap;html=1;fillColor=#dae8fc;strokeColor=#6c8ebf;" vertex="1" parent="1">
          <mxGeometry x="630" y="465" width="120" height="60" as="geometry" />
        </mxCell>
        <mxCell id="CKW2dxHiue9IkvRFs45i-115" style="edgeStyle=none;rounded=0;orthogonalLoop=1;jettySize=auto;html=1;entryX=0;entryY=0.5;entryDx=0;entryDy=0;" edge="1" parent="1" source="CKW2dxHiue9IkvRFs45i-108" target="CKW2dxHiue9IkvRFs45i-8">
          <mxGeometry relative="1" as="geometry" />
        </mxCell>
        <mxCell id="CKW2dxHiue9IkvRFs45i-108" value="Mac OS / Windows / Linux" style="rounded=1;whiteSpace=wrap;html=1;fillColor=#dae8fc;strokeColor=#6c8ebf;" vertex="1" parent="1">
          <mxGeometry x="630" y="645" width="120" height="60" as="geometry" />
        </mxCell>
        <mxCell id="CKW2dxHiue9IkvRFs45i-116" style="edgeStyle=none;rounded=0;orthogonalLoop=1;jettySize=auto;html=1;entryX=0;entryY=0.5;entryDx=0;entryDy=0;" edge="1" parent="1" source="CKW2dxHiue9IkvRFs45i-109" target="CKW2dxHiue9IkvRFs45i-35">
          <mxGeometry relative="1" as="geometry" />
        </mxCell>
        <mxCell id="CKW2dxHiue9IkvRFs45i-109" value="Gitlab" style="rounded=1;whiteSpace=wrap;html=1;fillColor=#dae8fc;strokeColor=#6c8ebf;" vertex="1" parent="1">
          <mxGeometry x="630" y="825" width="120" height="60" as="geometry" />
        </mxCell>
        <mxCell id="CKW2dxHiue9IkvRFs45i-128" style="edgeStyle=none;rounded=0;orthogonalLoop=1;jettySize=auto;html=1;entryX=0;entryY=0.5;entryDx=0;entryDy=0;strokeColor=#990000;dashed=1;" edge="1" parent="1" source="CKW2dxHiue9IkvRFs45i-124" target="CKW2dxHiue9IkvRFs45i-108">
          <mxGeometry relative="1" as="geometry" />
        </mxCell>
        <mxCell id="CKW2dxHiue9IkvRFs45i-129" style="edgeStyle=none;rounded=0;orthogonalLoop=1;jettySize=auto;html=1;entryX=0;entryY=0.5;entryDx=0;entryDy=0;strokeColor=#990000;dashed=1;" edge="1" parent="1" source="CKW2dxHiue9IkvRFs45i-124" target="CKW2dxHiue9IkvRFs45i-109">
          <mxGeometry relative="1" as="geometry" />
        </mxCell>
        <mxCell id="CKW2dxHiue9IkvRFs45i-124" value="Engineering role" style="sketch=0;outlineConnect=0;fontColor=#232F3E;gradientColor=none;fillColor=#2608bf;strokeColor=none;dashed=0;verticalLabelPosition=bottom;verticalAlign=top;align=center;html=1;fontSize=12;fontStyle=0;aspect=fixed;pointerEvents=1;shape=mxgraph.aws4.role;" vertex="1" parent="1">
          <mxGeometry x="376" y="833" width="78" height="44" as="geometry" />
        </mxCell>
        <mxCell id="CKW2dxHiue9IkvRFs45i-133" style="edgeStyle=none;rounded=0;orthogonalLoop=1;jettySize=auto;html=1;entryX=0.5;entryY=0;entryDx=0;entryDy=0;dashed=1;strokeColor=#990000;" edge="1" parent="1" source="CKW2dxHiue9IkvRFs45i-130" target="CKW2dxHiue9IkvRFs45i-8">
          <mxGeometry relative="1" as="geometry" />
        </mxCell>
        <mxCell id="CKW2dxHiue9IkvRFs45i-130" value="ECS Deployment , 85% services" style="shape=callout;whiteSpace=wrap;html=1;perimeter=calloutPerimeter;" vertex="1" parent="1">
          <mxGeometry x="810" y="280" width="120" height="80" as="geometry" />
        </mxCell>
        <mxCell id="CKW2dxHiue9IkvRFs45i-131" value="EKS deployment, 15% services" style="shape=callout;whiteSpace=wrap;html=1;perimeter=calloutPerimeter;" vertex="1" parent="1">
          <mxGeometry x="760" y="730" width="120" height="80" as="geometry" />
        </mxCell>
      </root>
    </mxGraphModel>
  </diagram>
</mxfile>
